<svg id="visual" viewBox="0 0 900 600" width="900" height="600" xmlns="http://www.w3.org/2000/svg" xmlns:xlink="http://www.w3.org/1999/xlink" version="1.1"><path d="M809 600L803.5 583.3C798 566.7 787 533.3 772.3 500C757.7 466.7 739.3 433.3 737.2 400C735 366.7 749 333.3 753.8 300C758.7 266.7 754.3 233.3 757.5 200C760.7 166.7 771.3 133.3 773.8 100C776.3 66.7 770.7 33.3 767.8 16.7L765 0L900 0L900 16.7C900 33.3 900 66.7 900 100C900 133.3 900 166.7 900 200C900 233.3 900 266.7 900 300C900 333.3 900 366.7 900 400C900 433.3 900 466.7 900 500C900 533.3 900 566.7 900 583.3L900 600Z" fill="#fac10a"></path><path d="M769 600L776.7 583.3C784.3 566.7 799.7 533.3 815.3 500C831 466.7 847 433.3 850.3 400C853.7 366.7 844.3 333.3 826.8 300C809.3 266.7 783.7 233.3 776.5 200C769.3 166.7 780.7 133.3 785.2 100C789.7 66.7 787.3 33.3 786.2 16.7L785 0L900 0L900 16.7C900 33.3 900 66.7 900 100C900 133.3 900 166.7 900 200C900 233.3 900 266.7 900 300C900 333.3 900 366.7 900 400C900 433.3 900 466.7 900 500C900 533.3 900 566.7 900 583.3L900 600Z" fill="#faae00"></path><path d="M810 600L819 583.3C828 566.7 846 533.3 847.5 500C849 466.7 834 433.3 825.8 400C817.7 366.7 816.3 333.3 824.3 300C832.3 266.7 849.7 233.3 860.5 200C871.3 166.7 875.7 133.3 865.5 100C855.3 66.7 830.7 33.3 818.3 16.7L806 0L900 0L900 16.7C900 33.3 900 66.7 900 100C900 133.3 900 166.7 900 200C900 233.3 900 266.7 900 300C900 333.3 900 366.7 900 400C900 433.3 900 466.7 900 500C900 533.3 900 566.7 900 583.3L900 600Z" fill="#f89b00"></path><path d="M864 600L868.7 583.3C873.3 566.7 882.7 533.3 881.7 500C880.7 466.7 869.3 433.3 869.3 400C869.3 366.7 880.7 333.3 886.2 300C891.7 266.7 891.3 233.3 891.8 200C892.3 166.7 893.7 133.3 884.7 100C875.7 66.7 856.3 33.3 846.7 16.7L837 0L900 0L900 16.7C900 33.3 900 66.7 900 100C900 133.3 900 166.7 900 200C900 233.3 900 266.7 900 300C900 333.3 900 366.7 900 400C900 433.3 900 466.7 900 500C900 533.3 900 566.7 900 583.3L900 600Z" fill="#f48803"></path></svg>